curl
version=1
nRows=216
nColumns=3
inDegrees=yes
endheader
time	r_shoulder_elev	r_elbow_flex
9.2300	30.894647	126.791754
9.2400	30.909626	126.819474
9.2500	30.924253	126.782485
9.2600	30.938504	126.680834
9.2700	30.952355	126.514777
9.2800	30.965785	126.284779
9.2900	30.978779	125.991507
9.3000	30.991334	125.635819
9.3100	31.003457	125.218755
9.3200	31.015173	124.741515
9.3300	31.026520	124.205446
9.3400	31.037556	123.612017
9.3500	31.048356	122.962798
9.3600	31.059013	122.259434
9.3700	31.069637	121.503620
9.3800	31.080349	120.697076
9.3900	31.091284	119.841522
9.4000	31.102584	118.938649
9.4100	31.114395	117.990100
9.4200	31.126860	116.997444
9.4300	31.140115	115.962154
9.4400	31.154287	114.885590
9.4500	31.169479	113.768983
9.4600	31.185775	112.613415
9.4700	31.203224	111.419812
9.4800	31.221842	110.188935
9.4900	31.241603	108.921375
9.5000	31.262435	107.617550
9.5100	31.284218	106.277708
9.5200	31.306779	104.901939
9.5300	31.329894	103.490177
9.5400	31.353283	102.042222
9.5500	31.376615	100.557755
9.5600	31.399507	99.036363
9.5700	31.421531	97.477565
9.5800	31.442217	95.880844
9.5900	31.461058	94.245677
9.6000	31.477519	92.571578
9.6100	31.491046	90.858128
9.6200	31.501070	89.105023
9.6300	31.507025	87.312110
9.6400	31.508351	85.479428
9.6500	31.504508	83.607251
9.6600	31.494985	81.696122
9.6700	31.479309	79.746894
9.6800	31.457059	77.760755
9.6900	31.427871	75.739262
9.7000	31.391446	73.684357
9.7100	31.347561	71.598389
9.7200	31.296073	69.484117
9.7300	31.236925	67.344715
9.7400	31.170149	65.183764
9.7500	31.095873	63.005238
9.7600	31.014317	60.813485
9.7700	30.925801	58.613192
9.7800	30.830736	56.409354
9.7900	30.729628	54.207228
9.8000	30.623075	52.012282
9.8100	30.511756	49.830145
9.8200	30.396434	47.666545
9.8300	30.277942	45.527250
9.8400	30.157178	43.418000
9.8500	30.035097	41.344448
9.8600	29.912699	39.312092
9.8700	29.791019	37.326215
9.8800	29.671116	35.391827
9.8900	29.554061	33.513608
9.9000	29.440925	31.695863
9.9100	29.332764	29.942478
9.9200	29.230609	28.256887
9.9300	29.135452	26.642041
9.9400	29.048230	25.100389
9.9500	28.969816	23.633871
9.9600	28.901009	22.243905
9.9700	28.842515	20.931393
9.9800	28.794944	19.696731
9.9900	28.758798	18.539822
10.0000	28.734463	17.460095
10.0100	28.722202	16.456532
10.0200	28.722152	15.527694
10.0300	28.734315	14.671757
10.0400	28.758564	13.886541
10.0500	28.794636	13.169550
10.0600	28.842134	12.518009
10.0700	28.900533	11.928901
10.0800	28.969178	11.399005
10.0900	29.047296	10.924938
10.1000	29.134000	10.503186
10.1100	29.228294	10.130147
10.1200	29.329091	9.802163
10.1300	29.435215	9.515555
10.1400	29.545417	9.266656
10.1500	29.658388	9.051840
10.1600	29.772771	8.867556
10.1700	29.887178	8.710348
10.1800	30.000201	8.576887
10.1900	30.110428	8.463991
10.2000	30.216461	8.368650
10.2100	30.316927	8.288041
10.2200	30.410496	8.219552
10.2300	30.495897	8.160798
10.2400	30.571925	8.109631
10.2500	30.637465	8.064163
10.2600	30.691496	8.022773
10.2700	30.733109	7.984121
10.2800	30.761514	7.947162
10.2900	30.776052	7.911148
10.3000	30.776203	7.875645
10.3100	30.761592	7.840534
10.3200	30.731996	7.806019
10.3300	30.687347	7.772633
10.3400	30.627735	7.741234
10.3500	30.553407	7.713011
10.3600	30.464769	7.689477
10.3700	30.362380	7.672467
10.3800	30.246950	7.664127
10.3900	30.119333	7.666908
10.4000	29.980516	7.683547
10.4100	29.831616	7.717054
10.4200	29.673865	7.770690
10.4300	29.508594	7.847942
10.4400	29.337226	7.952500
10.4500	29.161254	8.088226
10.4600	28.982229	8.259118
10.4700	28.801738	8.469278
10.4800	28.621389	8.722874
10.4900	28.442789	9.024096
10.5000	28.267526	9.377118
10.5100	28.097151	9.786048
10.5200	27.933153	10.254889
10.5300	27.776950	10.787484
10.5400	27.629863	11.387477
10.5500	27.493104	12.058257
10.5600	27.367763	12.802918
10.5700	27.254790	13.624210
10.5800	27.154993	14.524494
10.5900	27.069023	15.505703
10.6000	26.997369	16.569301
10.6100	26.940360	17.716251
10.6200	26.898157	18.946984
10.6300	26.870760	20.261377
10.6400	26.858008	21.658733
10.6500	26.859589	23.137771
10.6600	26.875042	24.696624
10.6700	26.903775	26.332841
10.6800	26.945068	28.043406
10.6900	26.998092	29.824754
10.7000	27.061918	31.672806
10.7100	27.135537	33.583010
10.7200	27.217869	35.550383
10.7300	27.307786	37.569574
10.7400	27.404120	39.634922
10.7500	27.505681	41.740524
10.7600	27.611274	43.880307
10.7700	27.719708	46.048105
10.7800	27.829814	48.237732
10.7900	27.940452	50.443058
10.8000	28.050528	52.658079
10.8100	28.158998	54.876988
10.8200	28.264882	57.094236
10.8300	28.367269	59.304585
10.8400	28.465323	61.503157
10.8500	28.558293	63.685468
10.8600	28.645511	65.847459
10.8700	28.726403	67.985516
10.8800	28.800484	70.096476
10.8900	28.867366	72.177632
10.9000	28.926752	74.226725
10.9100	28.978441	76.241927
10.9200	29.022324	78.221823
10.9300	29.058379	80.165382
10.9400	29.086670	82.071924
10.9500	29.107344	83.941081
10.9600	29.120622	85.772760
10.9700	29.126794	87.567098
10.9800	29.126213	89.324415
10.9900	29.119287	91.045170
11.0000	29.106473	92.729912
11.0100	29.088265	94.379241
11.0200	29.065190	95.993759
11.0300	29.037799	97.574032
11.0400	29.006657	99.120551
11.0500	28.972336	100.633703
11.0600	28.935410	102.113737
11.0700	28.896447	103.560741
11.0800	28.856002	104.974621
11.0900	28.814612	106.355094
11.1000	28.772793	107.701669
11.1100	28.731034	109.013653
11.1200	28.689794	110.290148
11.1300	28.649498	111.530062
11.1400	28.610539	112.732118
11.1500	28.573272	113.894876
11.1600	28.538013	115.016749
11.1700	28.505042	116.096035
11.1800	28.474600	117.130939
11.1900	28.446887	118.119609
11.2000	28.422067	119.060171
11.2100	28.400265	119.950757
11.2200	28.381568	120.789549
11.2300	28.366028	121.574806
11.2400	28.353661	122.304903
11.2500	28.344448	122.978362
11.2600	28.338339	123.593880
11.2700	28.335250	124.150360
11.2800	28.335069	124.646927
11.2900	28.337657	125.082953
11.3000	28.342847	125.458067
11.3100	28.350450	125.772168
11.3200	28.360256	126.025427
11.3300	28.372036	126.218288
11.3400	28.385547	126.351466
11.3500	28.400534	126.425935
11.3600	28.416732	126.442918
11.3700	28.433873	126.403867
11.3800	28.451687	126.310451
